<svg xmlns="http://www.w3.org/2000/svg" xmlns:xlink="http://www.w3.org/1999/xlink" viewBox="0 0 1099.62 1099.62"><defs><style>.cls-1{fill:none;}.cls-2{fill:#dce0df;}.cls-3{fill:url(#New_Pattern_2);}</style><pattern id="New_Pattern_2" data-name="New Pattern 2" width="521.87" height="490.92" patternTransform="translate(278.21 44.89) scale(0.6)" patternUnits="userSpaceOnUse" viewBox="0 0 521.87 490.92"><rect class="cls-1" width="521.87" height="490.92"/><ellipse class="cls-2" cx="478.26" cy="399.42" rx="2.6" ry="3.13"/><circle class="cls-2" cx="85.26" cy="290.46" r="2.38"/><circle class="cls-2" cx="249.88" cy="250.61" r="2.38"/><circle class="cls-2" cx="30.88" cy="192" r="2.38"/><path class="cls-2" d="M172.32,292.84c.5,3.59.75,7.17.92,10.75s.23,7.17.21,10.75-.08,7.17-.26,10.75-.41,7.17-.87,10.75c-.45-3.58-.69-7.16-.86-10.75s-.25-7.16-.27-10.75.05-7.16.22-10.75S171.83,296.43,172.32,292.84Z"/><path class="cls-2" d="M193.82,314.34c-3.58.5-7.16.75-10.75.92s-7.16.23-10.75.22-7.16-.09-10.75-.27-7.16-.41-10.75-.87c3.59-.45,7.17-.69,10.75-.86s7.17-.24,10.75-.27,7.17.05,10.75.22S190.24,313.85,193.82,314.34Z"/><circle class="cls-2" cx="172.32" cy="314.34" r="7.56"/><circle class="cls-2" cx="354.87" cy="100.85" r="2.38"/><circle class="cls-2" cx="519.49" cy="61" r="2.38"/><circle class="cls-2" cx="300.49" cy="2.38" r="2.38"/><path class="cls-2" d="M441.93,103.23c.5,3.59.76,7.17.92,10.75s.23,7.17.22,10.75-.09,7.17-.27,10.75-.41,7.17-.87,10.75c-.45-3.58-.69-7.16-.86-10.75s-.24-7.16-.27-10.75.05-7.16.22-10.75S441.44,106.82,441.93,103.23Z"/><path class="cls-2" d="M463.43,124.73c-3.58.5-7.16.75-10.75.92s-7.16.23-10.75.21-7.16-.08-10.75-.26-7.16-.41-10.75-.87c3.59-.45,7.17-.69,10.75-.86s7.17-.25,10.75-.27,7.17.05,10.75.22S459.85,124.24,463.43,124.73Z"/><circle class="cls-2" cx="441.93" cy="124.73" r="7.56"/><path class="cls-2" d="M451.07,445.78c.29,2.1.44,4.21.54,6.32s.13,4.21.13,6.32-.05,4.21-.16,6.32-.24,4.21-.51,6.32c-.26-2.11-.41-4.22-.51-6.32s-.14-4.22-.15-6.32,0-4.22.12-6.32S450.78,447.88,451.07,445.78Z"/><path class="cls-2" d="M463.71,458.42c-2.11.29-4.21.44-6.32.53s-4.21.14-6.32.13-4.21-.05-6.32-.15-4.21-.25-6.32-.51c2.11-.27,4.22-.41,6.32-.51s4.22-.14,6.32-.16,4.21,0,6.32.13S461.6,458.13,463.71,458.42Z"/><circle class="cls-2" cx="451.07" cy="458.42" r="4.44"/><circle class="cls-2" cx="264.96" cy="101.02" r="1.62"/><circle class="cls-2" cx="377.06" cy="73.89" r="1.62"/><ellipse class="cls-2" cx="495.05" cy="192.49" rx="1.77" ry="2.13"/><circle class="cls-2" cx="227.93" cy="33.97" r="1.62"/><path class="cls-2" d="M302.87,171.1c.34,2.44.52,4.88.63,7.32s.15,4.88.14,7.32-.05,4.88-.18,7.32-.28,4.88-.59,7.32c-.31-2.44-.47-4.88-.59-7.32s-.16-4.88-.18-7.32,0-4.88.15-7.32S302.54,173.54,302.87,171.1Z"/><path class="cls-2" d="M317.51,185.74c-2.44.33-4.88.51-7.32.62s-4.88.16-7.32.15-4.88-.06-7.32-.18-4.88-.28-7.32-.59c2.44-.31,4.88-.47,7.32-.59s4.88-.17,7.32-.18,4.88,0,7.32.15S315.07,185.4,317.51,185.74Z"/><circle class="cls-2" cx="302.87" cy="185.74" r="5.15"/><path class="cls-2" d="M150.82,59.25c.34,2.44.51,4.88.63,7.32s.15,4.88.14,7.32-.05,4.88-.18,7.32-.28,4.88-.59,7.32c-.31-2.44-.47-4.88-.59-7.32s-.16-4.88-.18-7.32,0-4.88.15-7.32S150.49,61.69,150.82,59.25Z"/><path class="cls-2" d="M165.46,73.89c-2.44.33-4.88.51-7.32.62s-4.88.16-7.32.15-4.88-.06-7.32-.18-4.88-.28-7.32-.59c2.44-.31,4.88-.47,7.32-.59s4.88-.17,7.32-.18,4.88,0,7.32.14S163,73.55,165.46,73.89Z"/><circle class="cls-2" cx="150.82" cy="73.89" r="5.15"/><circle class="cls-2" cx="171.01" cy="427.64" r="1.4"/><circle class="cls-2" cx="74.67" cy="450.96" r="1.4"/><circle class="cls-2" cx="42.84" cy="393.34" r="1.4"/><circle class="cls-2" cx="267.98" cy="356.55" r="1.4"/><circle class="cls-2" cx="329.28" cy="332.55" r="1.4"/><ellipse class="cls-2" cx="335.46" cy="489.43" rx="1.4" ry="1.49" transform="translate(-61.25 48.18) rotate(-7.53)"/><ellipse class="cls-2" cx="397.04" cy="463.34" rx="1.4" ry="1.49" transform="translate(-57.3 56.03) rotate(-7.53)"/><path class="cls-2" d="M125.62,452.36c.29,2.1.44,4.19.54,6.29s.13,4.19.12,6.29,0,4.2-.15,6.29-.24,4.2-.51,6.29c-.27-2.09-.41-4.19-.51-6.29S125,467,125,464.94s0-4.19.12-6.29S125.33,454.46,125.62,452.36Z"/><path class="cls-2" d="M138.2,464.94c-2.09.29-4.19.44-6.29.54s-4.19.13-6.29.12-4.19-.05-6.29-.15-4.2-.24-6.29-.51c2.09-.26,4.19-.4,6.29-.5s4.19-.15,6.29-.16,4.19,0,6.29.13S136.11,464.65,138.2,464.94Z"/><circle class="cls-2" cx="125.62" cy="464.94" r="4.42"/><path class="cls-2" d="M12.58,10.43c.29,2.1.44,4.19.54,6.29s.13,4.19.13,6.29-.05,4.2-.16,6.29-.24,4.2-.51,6.3c-.26-2.1-.4-4.2-.5-6.3s-.15-4.19-.16-6.29,0-4.19.13-6.29S12.29,12.53,12.58,10.43Z"/><path class="cls-2" d="M25.17,23c-2.1.29-4.2.44-6.3.54s-4.19.13-6.29.12-4.19-.05-6.29-.15S2.1,23.28,0,23c2.1-.26,4.19-.4,6.29-.5s4.2-.15,6.29-.16,4.2,0,6.29.13S23.07,22.72,25.17,23Z"/><circle class="cls-2" cx="12.58" cy="23.01" r="4.42"/><path class="cls-2" d="M476.54,224.05c.19,1.44.3,2.87.36,4.31s.1,2.87.09,4.3,0,2.87-.11,4.3-.16,2.87-.34,4.31c-.18-1.44-.28-2.87-.35-4.31s-.1-2.87-.11-4.3,0-2.87.09-4.3S476.34,225.49,476.54,224.05Z"/><path class="cls-2" d="M485.14,232.66c-1.43.2-2.87.3-4.3.37s-2.87.09-4.3.08-2.87,0-4.31-.1-2.87-.17-4.3-.35c1.43-.18,2.87-.28,4.3-.35s2.87-.09,4.31-.1,2.87,0,4.3.08S483.71,232.46,485.14,232.66Z"/><circle class="cls-2" cx="476.54" cy="232.66" r="3.02"/></pattern></defs><g id="Layer_2" data-name="Layer 2"><g id="Layer_1-2" data-name="Layer 1"><rect class="cls-3" width="1099.62" height="1099.62"/></g></g></svg>