<svg xmlns="http://www.w3.org/2000/svg" width="186.132" height="46" viewBox="0 0 186.132 46">
  <g id="Group_23" data-name="Group 23" transform="translate(-201.501 -52.427)">
    <text id="stardata" transform="translate(242.633 89.427)" fill="#ff2c2c" font-size="39" font-family="SF Pro" font-weight="700"><tspan x="0" y="0">star</tspan><tspan y="0" fill="#e4e4e4" font-weight="400" font-style="italic">data</tspan></text>
    <g id="Group_2" data-name="Group 2" transform="translate(201.501 58.179)">
      <path id="Path_1" data-name="Path 1" d="M283.153,267.808a3.842,3.842,0,0,1-1.135,1.6q-1.25,1.219-2.47,2.47a1.545,1.545,0,0,1-1.274.506c-.616-.04-1.235-.037-1.851-.077a.408.408,0,0,0-.468.3c-.414.917-.838,1.832-1.31,2.72a1.264,1.264,0,0,1-1.7.606.379.379,0,0,0-.325.063q-1.135,1.108-2.243,2.243a.378.378,0,0,0-.056.325,1.3,1.3,0,0,1-.577,1.686,15.09,15.09,0,0,1-18.6-2.108,14.736,14.736,0,0,1-4.346-8.73,14.987,14.987,0,0,1,2.111-9.968,1.293,1.293,0,0,1,1.709-.589.348.348,0,0,0,.3-.053q1.147-1.122,2.267-2.269a.381.381,0,0,0,.043-.327,1.251,1.251,0,0,1,.572-1.652c1-.518,2.015-1,3.047-1.446,1.98-.857,3.979-1.671,5.965-2.516q4.158-1.769,8.309-3.556a1.4,1.4,0,0,1,1.859.354q.6.6,1.2,1.214a.628.628,0,0,1,.056.112,2.851,2.851,0,0,0-.264.212q-6.051,6.046-12.1,12.09a1,1,0,0,1-.574.28,6.113,6.113,0,1,0,6.539,6.777,1.411,1.411,0,0,1,.436-.92q5.974-5.947,11.926-11.916c.092-.092.167-.2.3-.364.59.629,1.176,1.182,1.672,1.807a1.257,1.257,0,0,1-.013,1.323q-1.626,3.774-3.239,7.554c-.274.641-.548,1.281-.767,1.963q.721-.722,1.442-1.443a2.012,2.012,0,0,1,1.975-.625,1.971,1.971,0,0,1,1.455,1.287c.037.1.086.188.13.282Z" transform="translate(-246.659 -246.832)" fill="#e4e4e4"/>
      <path id="Path_2" data-name="Path 2" d="M277.171,284.789a3.547,3.547,0,1,1-3.54-3.541A3.573,3.573,0,0,1,277.171,284.789Z" transform="translate(-258.504 -264.239)" fill="#e4e4e4"/>
      <path id="Path_3" data-name="Path 3" d="M283.016,270.757l6.523-6.524,2.568,2.565-6.525,6.52A6.511,6.511,0,0,0,283.016,270.757Z" transform="translate(-265.048 -255.633)" fill="#e4e4e4"/>
    </g>
  </g>
</svg>
