<svg xmlns="http://www.w3.org/2000/svg" width="144.499" height="36" viewBox="0 0 144.499 36">
  <g id="Group_3" data-name="Group 3" transform="translate(-201.501 -52)">
    <text id="stardata" transform="translate(233 81)" fill="#ff2c2c" font-size="30" font-family="SF Pro" font-weight="700"><tspan x="0" y="0">star</tspan><tspan y="0" fill="#e4e4e4" font-weight="400" font-style="italic">data</tspan></text>
    <g id="Group_2" data-name="Group 2" transform="translate(201.501 56.748)">
      <path id="Path_1" data-name="Path 1" d="M274.7,262.949a2.952,2.952,0,0,1-.872,1.229q-.96.937-1.9,1.9a1.187,1.187,0,0,1-.979.388c-.474-.031-.949-.029-1.422-.059a.314.314,0,0,0-.359.232c-.318.7-.644,1.408-1.006,2.09a.971.971,0,0,1-1.305.466.292.292,0,0,0-.25.049q-.872.851-1.723,1.724a.29.29,0,0,0-.043.249,1,1,0,0,1-.444,1.3,11.594,11.594,0,0,1-14.29-1.62,11.322,11.322,0,0,1-3.339-6.708,11.515,11.515,0,0,1,1.622-7.659.994.994,0,0,1,1.313-.453.267.267,0,0,0,.229-.041q.881-.862,1.742-1.743a.293.293,0,0,0,.033-.251.961.961,0,0,1,.44-1.269c.766-.4,1.549-.768,2.341-1.111,1.522-.658,3.057-1.284,4.583-1.933q3.195-1.359,6.384-2.733a1.073,1.073,0,0,1,1.429.272q.464.465.925.933a.48.48,0,0,1,.043.086,2.193,2.193,0,0,0-.2.163q-4.649,4.646-9.3,9.289a.768.768,0,0,1-.441.215,4.7,4.7,0,1,0,5.024,5.207,1.084,1.084,0,0,1,.335-.707q4.59-4.569,9.163-9.156c.071-.071.128-.155.23-.28.453.483.9.908,1.284,1.388a.966.966,0,0,1-.01,1.017q-1.249,2.9-2.488,5.8c-.211.492-.421.984-.589,1.508q.554-.555,1.108-1.109a1.546,1.546,0,0,1,1.517-.48,1.514,1.514,0,0,1,1.118.989c.028.074.066.144.1.216Z" transform="translate(-246.659 -246.832)" fill="#e4e4e4"/>
      <path id="Path_2" data-name="Path 2" d="M275.528,283.969a2.725,2.725,0,1,1-2.72-2.721A2.746,2.746,0,0,1,275.528,283.969Z" transform="translate(-261.185 -268.179)" fill="#e4e4e4"/>
      <path id="Path_3" data-name="Path 3" d="M283.016,269.245l5.012-5.012L290,266.2l-5.013,5.009A5,5,0,0,0,283.016,269.245Z" transform="translate(-269.21 -257.625)" fill="#e4e4e4"/>
    </g>
  </g>
</svg>
